<mxfile host="app.diagrams.net" agent="Mozilla/5.0 (Windows NT 10.0; Win64; x64) AppleWebKit/537.36 (KHTML, like Gecko) Chrome/140.0.0.0 Safari/537.36" version="28.2.4">
  <diagram name="Page-1" id="JK8wdAZtHWYt3wARSvML">
    <mxGraphModel dx="1042" dy="-2838" grid="1" gridSize="10" guides="1" tooltips="1" connect="1" arrows="1" fold="1" page="1" pageScale="1" pageWidth="1100" pageHeight="850" math="0" shadow="0">
      <root>
        <mxCell id="0" />
        <mxCell id="1" parent="0" />
        <mxCell id="OYBqLOTakXJY3HWWt__x-14" style="edgeStyle=orthogonalEdgeStyle;rounded=0;orthogonalLoop=1;jettySize=auto;html=1;exitX=0.5;exitY=0;exitDx=0;exitDy=0;entryX=0.5;entryY=1;entryDx=0;entryDy=0;" edge="1" parent="1" source="OYBqLOTakXJY3HWWt__x-1" target="OYBqLOTakXJY3HWWt__x-2">
          <mxGeometry relative="1" as="geometry" />
        </mxCell>
        <mxCell id="OYBqLOTakXJY3HWWt__x-17" value="12 AWG Wires" style="edgeLabel;html=1;align=center;verticalAlign=middle;resizable=0;points=[];" vertex="1" connectable="0" parent="OYBqLOTakXJY3HWWt__x-14">
          <mxGeometry x="0.2278" relative="1" as="geometry">
            <mxPoint as="offset" />
          </mxGeometry>
        </mxCell>
        <mxCell id="OYBqLOTakXJY3HWWt__x-1" value="&lt;font style=&quot;font-size: 24px;&quot;&gt;LiPo Battery&amp;nbsp;&lt;br&gt;7.4V&lt;/font&gt;" style="ellipse;whiteSpace=wrap;html=1;" vertex="1" parent="1">
          <mxGeometry x="160" y="4010" width="270" height="120" as="geometry" />
        </mxCell>
        <mxCell id="OYBqLOTakXJY3HWWt__x-8" style="edgeStyle=orthogonalEdgeStyle;rounded=0;orthogonalLoop=1;jettySize=auto;html=1;entryX=0.5;entryY=1;entryDx=0;entryDy=0;" edge="1" parent="1" source="OYBqLOTakXJY3HWWt__x-2" target="OYBqLOTakXJY3HWWt__x-3">
          <mxGeometry relative="1" as="geometry" />
        </mxCell>
        <mxCell id="OYBqLOTakXJY3HWWt__x-18" value="16 AWG Wires" style="edgeLabel;html=1;align=center;verticalAlign=middle;resizable=0;points=[];" vertex="1" connectable="0" parent="OYBqLOTakXJY3HWWt__x-8">
          <mxGeometry x="0.0133" y="-2" relative="1" as="geometry">
            <mxPoint as="offset" />
          </mxGeometry>
        </mxCell>
        <mxCell id="OYBqLOTakXJY3HWWt__x-13" value="18 AWG Wires" style="edgeStyle=orthogonalEdgeStyle;rounded=0;orthogonalLoop=1;jettySize=auto;html=1;exitX=1;exitY=0.5;exitDx=0;exitDy=0;entryX=0;entryY=0.5;entryDx=0;entryDy=0;" edge="1" parent="1" source="OYBqLOTakXJY3HWWt__x-2" target="OYBqLOTakXJY3HWWt__x-7">
          <mxGeometry relative="1" as="geometry" />
        </mxCell>
        <mxCell id="OYBqLOTakXJY3HWWt__x-2" value="&lt;font style=&quot;font-size: 18px;&quot;&gt;Power Distribution Board&lt;/font&gt;" style="rounded=0;whiteSpace=wrap;html=1;" vertex="1" parent="1">
          <mxGeometry x="197.5" y="3800" width="195" height="95" as="geometry" />
        </mxCell>
        <mxCell id="OYBqLOTakXJY3HWWt__x-9" style="edgeStyle=orthogonalEdgeStyle;rounded=0;orthogonalLoop=1;jettySize=auto;html=1;exitX=1;exitY=0.5;exitDx=0;exitDy=0;entryX=0;entryY=0.5;entryDx=0;entryDy=0;" edge="1" parent="1" source="OYBqLOTakXJY3HWWt__x-3" target="OYBqLOTakXJY3HWWt__x-4">
          <mxGeometry relative="1" as="geometry" />
        </mxCell>
        <mxCell id="OYBqLOTakXJY3HWWt__x-19" value="USB to type C cable" style="edgeLabel;html=1;align=center;verticalAlign=middle;resizable=0;points=[];" vertex="1" connectable="0" parent="OYBqLOTakXJY3HWWt__x-9">
          <mxGeometry x="0.1374" y="2" relative="1" as="geometry">
            <mxPoint as="offset" />
          </mxGeometry>
        </mxCell>
        <mxCell id="OYBqLOTakXJY3HWWt__x-3" value="buck to buck converter" style="rhombus;whiteSpace=wrap;html=1;" vertex="1" parent="1">
          <mxGeometry x="255" y="3630" width="80" height="80" as="geometry" />
        </mxCell>
        <mxCell id="OYBqLOTakXJY3HWWt__x-10" style="edgeStyle=orthogonalEdgeStyle;rounded=0;orthogonalLoop=1;jettySize=auto;html=1;exitX=0.5;exitY=0;exitDx=0;exitDy=0;entryX=0;entryY=0.5;entryDx=0;entryDy=0;" edge="1" parent="1" source="OYBqLOTakXJY3HWWt__x-4" target="OYBqLOTakXJY3HWWt__x-5">
          <mxGeometry relative="1" as="geometry" />
        </mxCell>
        <mxCell id="OYBqLOTakXJY3HWWt__x-21" value="USB to type C cable" style="edgeLabel;html=1;align=center;verticalAlign=middle;resizable=0;points=[];" vertex="1" connectable="0" parent="OYBqLOTakXJY3HWWt__x-10">
          <mxGeometry x="0.2343" y="-1" relative="1" as="geometry">
            <mxPoint as="offset" />
          </mxGeometry>
        </mxCell>
        <mxCell id="OYBqLOTakXJY3HWWt__x-4" value="Raspberry Pi 5" style="whiteSpace=wrap;html=1;aspect=fixed;" vertex="1" parent="1">
          <mxGeometry x="500" y="3630" width="80" height="80" as="geometry" />
        </mxCell>
        <mxCell id="OYBqLOTakXJY3HWWt__x-11" style="edgeStyle=orthogonalEdgeStyle;rounded=0;orthogonalLoop=1;jettySize=auto;html=1;exitX=1;exitY=0.5;exitDx=0;exitDy=0;" edge="1" parent="1" source="OYBqLOTakXJY3HWWt__x-5" target="OYBqLOTakXJY3HWWt__x-6">
          <mxGeometry relative="1" as="geometry" />
        </mxCell>
        <mxCell id="OYBqLOTakXJY3HWWt__x-5" value="ESP-32" style="whiteSpace=wrap;html=1;aspect=fixed;" vertex="1" parent="1">
          <mxGeometry x="690" y="3517.5" width="80" height="80" as="geometry" />
        </mxCell>
        <mxCell id="OYBqLOTakXJY3HWWt__x-12" style="edgeStyle=orthogonalEdgeStyle;rounded=0;orthogonalLoop=1;jettySize=auto;html=1;exitX=0.5;exitY=1;exitDx=0;exitDy=0;entryX=0.5;entryY=0;entryDx=0;entryDy=0;" edge="1" parent="1" source="OYBqLOTakXJY3HWWt__x-6" target="OYBqLOTakXJY3HWWt__x-7">
          <mxGeometry relative="1" as="geometry" />
        </mxCell>
        <mxCell id="OYBqLOTakXJY3HWWt__x-6" value="Servo Motor Driver" style="shape=parallelogram;perimeter=parallelogramPerimeter;whiteSpace=wrap;html=1;fixedSize=1;" vertex="1" parent="1">
          <mxGeometry x="730" y="3650" width="120" height="60" as="geometry" />
        </mxCell>
        <mxCell id="OYBqLOTakXJY3HWWt__x-7" value="12 Servo Motors" style="whiteSpace=wrap;html=1;aspect=fixed;" vertex="1" parent="1">
          <mxGeometry x="750" y="3807.5" width="80" height="80" as="geometry" />
        </mxCell>
        <mxCell id="OYBqLOTakXJY3HWWt__x-16" style="edgeStyle=orthogonalEdgeStyle;rounded=0;orthogonalLoop=1;jettySize=auto;html=1;entryX=0.25;entryY=0;entryDx=0;entryDy=0;" edge="1" parent="1" source="OYBqLOTakXJY3HWWt__x-15" target="OYBqLOTakXJY3HWWt__x-4">
          <mxGeometry relative="1" as="geometry" />
        </mxCell>
        <mxCell id="OYBqLOTakXJY3HWWt__x-20" value="USB to Type C Cable" style="edgeLabel;html=1;align=center;verticalAlign=middle;resizable=0;points=[];" vertex="1" connectable="0" parent="OYBqLOTakXJY3HWWt__x-16">
          <mxGeometry x="-0.262" relative="1" as="geometry">
            <mxPoint as="offset" />
          </mxGeometry>
        </mxCell>
        <mxCell id="OYBqLOTakXJY3HWWt__x-15" value="USB WEBCAM" style="whiteSpace=wrap;html=1;aspect=fixed;" vertex="1" parent="1">
          <mxGeometry x="312.5" y="3510" width="87.5" height="87.5" as="geometry" />
        </mxCell>
      </root>
    </mxGraphModel>
  </diagram>
</mxfile>
